<?xml version="1.0" encoding="UTF-8"?>
<svg id="Capa_1" xmlns="http://www.w3.org/2000/svg" viewBox="0 0 150 150">
  <defs>
    <style>
      .cls-1 {
        fill: #46bef2;
      }
    </style>
  </defs>
  <path class="cls-1" d="M32.44,75.07c3.19-.44,6.88-.2,9.17.38.54.14,1-.41.87-1.01-3.38-14.92-11.33-23.28-1.85-27.56,2.86-1.29,7.11.89,10.22,1.12,4.59.34,8.19.07,11.29-.23.8-.08,1.38.89,1,1.68-1.06,2.23-2.31,5.97-1.66,11.03,1.12,8.75,3.4,12.19,12.26,9.73,9.38-2.6,7.85-15.48,4.19-21.51-.33-.54-.92-1.14-1.46-1.71-.58-.61-.36-1.69.39-1.92,10.81-3.3,25.43-8.35,30.5,2.67,3.35,7.29-1.46,13.64-2.98,20.7-.19.89.62,1.65,1.35,1.28,6.86-3.47,18.91-3.82,21.58,5.84,2.22,8-2.18,13.48-9.98,13.76-3.2.12-6.82-.83-9.24-1.96-.83-.39-1.62.6-1.2,1.5,2.41,5.14,6.32,10.48,5.97,15.65-.21,3.13-1,5.27-2.19,6.78-2.79,3.53-11.15,3.58-16.33,2.87-2.2-.3-5.27-.1-7.6-.03-.82.03-1.39-.95-1.05-1.78.95-2.3,2.25-5.47,1.8-8.91-1.12-8.75-6.75-12.69-14.88-10.06-7.78,2.52-2.75,16.39-.89,20.88.3.73-.08,1.58-.77,1.72-1.82.37-4.13.74-5.84,1.23-6.95,2.01-12.71,4.5-19.67-.26-7.16-4.9-2.75-15.32-1.16-23.16.14-.69-.5-1.26-1.06-.96-8.23,4.46-16.91,5.28-19.13-4.14-2.38-10.08.62-12.57,8.34-13.64Z"/>
</svg>