<?xml version="1.0" encoding="UTF-8"?>
<svg id="Capa_1" xmlns="http://www.w3.org/2000/svg" viewBox="0 0 150 150">
  <defs>
    <style>
      .cls-1 {
        fill: #00b1ff;
      }
    </style>
  </defs>
  <polygon class="cls-1" points="82.36 48.94 111.05 34.83 102.71 63.76 136.51 80.74 98.95 96.9 101.67 130.44 72.43 107.77 49.44 128.03 52.62 99.53 14.49 96.2 42.06 76.08 22.88 50.84 57.61 52.83 59.59 22.35 82.36 48.94"/>
  <g>
    <path d="M69.98,63.81c-.95.12-1.22,1.42-1.12,2.23l.42,3.34c.1.82.69,2,1.64,1.88.95-.12,1.22-1.42,1.12-2.23l-.42-3.34c-.1-.82-.69-2-1.64-1.88Z"/>
    <path d="M78.33,62.6c-.93-.24-1.49.84-1.51,1.65-.04,1.59.06,3.18.33,4.75.14.82.66,2.01,1.64,1.88.93-.12,1.26-1.43,1.12-2.23-.21-1.21-.32-2.42-.29-3.64.02-.89-.33-2.16-1.28-2.41Z"/>
    <path d="M92.58,70.95c.84,7.08-4.94,12.16-10.59,14.57-3.04,1.3-6.35,2.36-9.65,2.63-3.45.29-6.42-.81-9.03-3.2-2.91-2.67-5.28-6.08-7.06-9.65-.62-1.24-2.55-.43-1.92.83,3.3,6.63,8.82,14.14,16.61,14.24,3.7.05,7.44-1.1,10.86-2.43,3.48-1.35,6.83-3.29,9.31-6.22,2.54-3,4.02-6.99,3.54-11.04-.17-1.39-2.24-1.13-2.07.26Z"/>
  </g>
</svg>