<?xml version="1.0" encoding="UTF-8"?>
<svg id="Capa_1" xmlns="http://www.w3.org/2000/svg" viewBox="0 0 150 150">
  <defs>
    <style>
      .cls-1 {
        fill: #fff;
      }

      .cls-2 {
        fill: #00a843;
      }

      .cls-3 {
        fill: #0a0a0a;
      }
    </style>
  </defs>
  <path d="M124.92,75s-22.35,32.11-49.92,32.11-49.92-32.11-49.92-32.11c0,0,22.35-32.11,49.92-32.11s49.92,32.11,49.92,32.11Z"/>
  <path class="cls-1" d="M119.56,76.29s-19.84,25.89-44.31,25.89-44.31-25.89-44.31-25.89c0,0,19.84-25.89,44.31-25.89s44.31,25.89,44.31,25.89Z"/>
  <path class="cls-2" d="M100.48,69.82c0,13.2-11.29,23.9-25.22,23.9s-25.22-10.7-25.22-23.9c0-5.06,1.66-9.76,4.5-13.62,6.18-3.37,13.23-5.79,20.72-5.79s14.54,2.42,20.72,5.79c2.84,3.86,4.5,8.56,4.5,13.62Z"/>
  <path class="cls-3" d="M90.99,75.41l-14.15-3.79,13.83-5.03c.29-.1.43-.42.33-.71-.1-.29-.42-.43-.71-.33l-13.77,5.01,8.44-12.06c.17-.25.11-.59-.14-.77s-.59-.11-.77.14l-8.4,12v-14.72c0-.3-.25-.55-.55-.55h0c-.3,0-.55.25-.55.55v15.2l-10.08-12.02c-.2-.23-.54-.26-.78-.07-.23.2-.26.54-.07.78l9.77,11.64-14.62-3.92c-.29-.08-.6.1-.68.39s.1.6.39.68l14.68,3.93-14.22,5.18c-.29.1-.43.42-.33.71.1.29.42.43.71.33l14.28-5.2-8.68,12.4c-.17.25-.11.59.14.77s.59.11.77-.14l8.72-12.45v15.14c0,.3.25.55.55.55h0c.3,0,.55-.25.55-.55v-15.12l9.41,11.21c.2.23.54.26.78.07s.26-.54.07-.78l-9.42-11.23,14.22,3.81c.29.08.6-.1.68-.39.08-.29-.1-.6-.39-.68Z"/>
</svg>