<?xml version="1.0" encoding="UTF-8"?>
<svg id="Capa_1" xmlns="http://www.w3.org/2000/svg" viewBox="0 0 150 150">
  <defs>
    <style>
      .cls-1 {
        fill: #fff;
      }

      .cls-2 {
        fill: #54639e;
      }

      .cls-3 {
        stroke: #f7f7f7;
      }

      .cls-3, .cls-4 {
        fill: none;
        stroke-miterlimit: 10;
        stroke-width: .41px;
      }

      .cls-5 {
        fill: #f8bf00;
      }

      .cls-4 {
        stroke: #020221;
      }
    </style>
  </defs>
  <g>
    <path class="cls-5" d="M106.19,66.42c-1.76-17.82-17.89-30.96-36.02-29.35-18.18,1.62-31.4,17.31-29.63,35.18,1.1,11.11,7.17,14.15,16.44,19.18,3.22,1.75,5.95,11.23,6.3,14.82l.17,1.7c.69,6.97,6.99,12.1,14.08,11.47l1.57-.14c7.09-.63,12.27-6.79,11.58-13.75l-.17-1.7c-.36-3.62.52-13.42,3.36-15.73,8.08-6.58,13.41-10.6,12.31-21.68Z"/>
    <path class="cls-4" d="M79.07,103.58l-4.07-41.06c-.2-2.05-.47-4.9.63-6.65,1.53-2.42,5.97-5,11.05-1.18,5.09,3.83,3.52,13.46-11.92,15.18l-4.52.4c-15.48,1.02-18.91-8.16-14.66-12.82,4.24-4.64,9.1-2.89,11.09-.78,1.43,1.52,1.72,4.37,1.93,6.42l4.07,41.06"/>
    <g>
      <g>
        <path class="cls-2" d="M91.63,108.26l-28.9,2.56c-2.12.19-4.01-1.35-4.22-3.44h0c-.21-2.09,1.35-3.93,3.47-4.12l28.9-2.56c2.12-.19,4.01,1.35,4.22,3.44h0c.21,2.09-1.35,3.93-3.47,4.12Z"/>
        <path class="cls-2" d="M92.17,113.7l-28.9,2.56c-2.12.19-4.01-1.35-4.22-3.44h0c-.21-2.09,1.35-3.93,3.47-4.12l28.9-2.56c2.12-.19,4.01,1.35,4.22,3.44h0c.21,2.09-1.35,3.93-3.47,4.12Z"/>
        <path class="cls-2" d="M92.71,119.14l-28.9,2.56c-2.12.19-4.01-1.35-4.22-3.44h0c-.21-2.09,1.35-3.93,3.47-4.12l28.9-2.56c2.12-.19,4.01,1.35,4.22,3.44h0c.21,2.09-1.35,3.93-3.47,4.12Z"/>
        <path class="cls-2" d="M93.25,124.58l-28.9,2.56c-2.12.19-4.01-1.35-4.22-3.44h0c-.21-2.09,1.35-3.93,3.47-4.12l28.9-2.56c2.12-.19,4.01,1.35,4.22,3.44h0c.21,2.09-1.35,3.93-3.47,4.12Z"/>
      </g>
      <ellipse class="cls-2" cx="78.8" cy="125.86" rx="13.55" ry="5.23" transform="translate(-10.61 7.3) rotate(-4.97)"/>
      <path class="cls-3" d="M59.65,109.97c.51-.05,26.95-2.39,26.95-2.39"/>
      <path class="cls-3" d="M80.55,113.72c.51-.05,14.35-1.27,14.35-1.27"/>
      <line class="cls-3" x1="60.77" y1="121.23" x2="83.78" y2="119.19"/>
      <path class="cls-3" d="M79.58,125.79c.27-.02,12.71-1.13,12.71-1.13"/>
    </g>
  </g>
  <path class="cls-1" d="M32.52,47.9l-14.61-5.42c-.76-.28-1.64-.02-1.98.75-.32.7-.01,1.7.75,1.98,4.87,1.81,9.74,3.61,14.61,5.42.76.28,1.64.02,1.98-.75.32-.7.01-1.7-.75-1.98h0Z"/>
  <path class="cls-1" d="M46.76,31.52c-2.03-3.3-4.22-6.5-6.57-9.59-.49-.64-1.44-.81-2.1-.32s-.81,1.45-.32,2.1c2.35,3.08,4.54,6.28,6.57,9.59.42.69,1.48.77,2.1.32.7-.51.74-1.4.32-2.1h0Z"/>
  <path class="cls-1" d="M73.2,24.78c-.39-3.72-.79-7.44-1.18-11.16-.2-1.92-3.19-1.61-2.98.32l1.18,11.16c.2,1.92,3.19,1.61,2.98-.32h0Z"/>
  <path class="cls-1" d="M98.31,32.04c2.39-3.59,4.78-7.18,7.17-10.77.45-.67.45-1.57-.22-2.11-.59-.47-1.66-.45-2.11.22-2.39,3.59-4.78,7.18-7.17,10.77-.45.67-.45,1.57.22,2.11.59.47,1.66.45,2.11-.22h0Z"/>
  <path class="cls-1" d="M110.01,47.93c4.82-1.4,9.4-3.52,13.62-6.25.68-.44.78-1.47.32-2.1-.5-.69-1.41-.76-2.1-.32-4,2.58-8.36,4.54-12.94,5.87-.78.23-1.12,1.24-.85,1.95.32.81,1.16,1.07,1.95.85h0Z"/>
</svg>