<?xml version="1.0" encoding="UTF-8"?>
<svg id="Capa_1" xmlns="http://www.w3.org/2000/svg" viewBox="0 0 150 150">
  <defs>
    <style>
      .cls-1 {
        fill: #d8b407;
      }
    </style>
  </defs>
  <path class="cls-1" d="M47.73,64.48l23.87,6.41c.29.08.57.14.86.2l15.09,32.36-6.23,2.9,3.05,6.55,6.23-2.9,2.31,4.96-6.23,2.9,2.66,5.7-4.86,2.26,3.05,6.55,11.08-5.17,3,6.44,16.05-7.48-29.17-62.56c.14-.26.27-.52.4-.79l10.43-22.41c3.89-8.36-.7-18.22-9.61-20.61l-23.87-6.41c-6.97-1.87-14.27,1.53-17.32,8.07l-10.43,22.41c-3.89,8.36.7,18.22,9.61,20.61ZM53.08,43.03l5.33-11.46c1.56-3.34,5.29-5.08,8.85-4.13l12.2,3.28c4.55,1.22,6.9,6.26,4.91,10.54l-5.33,11.46c-1.56,3.34-5.29,5.08-8.85,4.13l-12.2-3.28c-4.55-1.22-6.9-6.26-4.91-10.54Z"/>
</svg>