<?xml version="1.0" encoding="UTF-8"?>
<svg id="Capa_1" xmlns="http://www.w3.org/2000/svg" viewBox="0 0 1168.52 291.06">
  <defs>
    <style>
      .cls-1 {
        fill: #fff;
      }
    </style>
  </defs>
  <g>
    <path class="cls-1" d="M275.38,149.69C275.38,67.64,321.39,0,404,0c51.56,0,80.94,27.72,80.94,68.75,0,90.37-114.76,97.57-166.32,95.91,2.22,44.91,23.84,92.03,82.05,92.03,37.7,0,60.98-17.74,70.96-25.5l16.63,29.38c-13.86,11.64-45.46,30.49-89.81,30.49-86.49,0-123.08-58.76-123.08-141.37ZM443.92,73.73c0-26.06-17.19-41.58-42.14-41.58-59.32,0-82.05,56-83.71,99.24,29.94,2.22,125.85-1.66,125.85-57.66Z"/>
    <path class="cls-1" d="M515.99,149.69c0-82.05,46.01-149.69,128.62-149.69,51.56,0,80.94,27.72,80.94,68.75,0,90.37-114.76,97.57-166.32,95.91,2.22,44.91,23.84,92.03,82.05,92.03,37.7,0,60.98-17.74,70.96-25.5l16.63,29.38c-13.86,11.64-45.46,30.49-89.81,30.49-86.49,0-123.08-58.76-123.08-141.37ZM684.53,73.73c0-26.06-17.19-41.58-42.14-41.58-59.32,0-82.05,56-83.71,99.24,29.94,2.22,125.85-1.66,125.85-57.66Z"/>
    <path class="cls-1" d="M771.57,7.76h37.7l4.99,41.58c10.53-28.28,37.7-49.34,69.3-49.34,17.74,0,33.82,4.43,43.8,10.53l-11.09,36.59c-10.53-6.1-24.39-10.54-38.25-10.54-35.48,0-57.66,32.16-59.32,69.3v177.41h-43.24V45.46l-3.88-37.7Z"/>
    <path class="cls-1" d="M931.8,143.59C931.8,28.83,999.99,0,1054.87,0c38.25,0,113.65,12.2,113.65,137.49,0,108.11-53.22,153.57-123.08,153.57s-113.65-47.68-113.65-147.47ZM1124.73,146.91c0-66.53-19.4-112.54-73.18-112.54s-75.95,43.8-75.95,103.67c0,54.89,10.53,119.75,73.73,119.75,52.11,0,75.4-50.45,75.4-110.88Z"/>
  </g>
  <path class="cls-1" d="M190.11,7.5v113.92c-25.07,6.41-50.37,9.76-76.86,9.76-24.14,0-47.68-3.08-71.14-8.68V7.5H0v276.14h42.11v-128.7c24.28,5.53,48.22,8.44,71.14,8.44,24.78,0,50.63-3.34,76.86-9.76v130.02h42.54V7.5h-42.54Z"/>
</svg>